# xmcd
#
# Track frame offsets:
#	150
#	15495
#	28629
#	40697
#	57825
#	72031
#	84624
#	102650
#	115790
#	132339
#	145917
#	159340
#	171025
#	184541
#	196876
#
# Disc length: 2738 seconds
#
# Revision: 1
# Processed by: cddbd v1.4PL0 Copyright (c) Steve Scherf et al.
# Submitted via: audiograbber 1.80
#
DISCID=bf0ab00f
DTITLE=Richard Clayderman - Succès - CD1
DYEAR=1900
DGENRE=
TTITLE0=Dolannes Melody
TTITLE1=Les rivages de la nuit
TTITLE2=Plaisir d'amour
TTITLE3=Candle in the Wind
TTITLE4=Tendresses
TTITLE5=Souviens-toi de moi
TTITLE6=Sometimes when we Touch
TTITLE7=Love Is a Many Splendored Thing
TTITLE8=Eleana
TTITLE9=L'enfant qui rêve
TTITLE10=Des blés sans moisson
TTITLE11=The Most Beautiful Girl
TTITLE12=Écoute ô mon amour
TTITLE13=L'amour tendresse
TTITLE14=Vaya con dios
EXTD=Produced by Paul de Senneville and Olivier Toussaint.
EXTT0=
EXTT1=
EXTT2=
EXTT3=
EXTT4=
EXTT5=
EXTT6=
EXTT7=
EXTT8=
EXTT9=
EXTT10=
EXTT11=
EXTT12=
EXTT13=
EXTT14=
PLAYORDER=
